<svg xmlns="http://www.w3.org/2000/svg" width="24" height="24" viewBox="0 0 24 24" fill="currentColor">
  <path d="M12 2.25C6.075 2.25 1.5 6.825 1.5 12.75c0 2.175.663 4.19 1.76 5.838l-1.153 4.138a.75.75 0 0 0 1.084.854l4.518-1.187a10.21 10.21 0 0 0 3.091.446c5.925 0 10.5-4.575 10.5-10.5S17.925 2.25 12 2.25zM12 18.75c-1.575 0-3.075-.675-4.215-1.762l-.42.088.872-3.062c-.018-.215-.075-.42-.172-.62L7.06 12.75c-.229-.268-.352-.603-.352-.957 0-.24.057-.472.161-.688.518-.838 1.05-1.69 1.578-2.552.146-.222.282-.437.418-.662.062-.087.127-.174.195-.259.285-.339.659-.636 1.062-.881.092-.062.186-.116.28-.167.325-.155.689-.267 1.037-.336.469-.078.957-.062 1.42.054.22.066.436.163.643.284.214.123.417.274.594.453l.074.09c.035.043.066.09.093.14.037.068.061.143.078.221.038.176.022.357-.043.534-.02.064-.05.126-.089.185-.033.051-.071.1-.115.147-.098.118-.211.226-.331.33-.207.185-.429.361-.65.532-.22.17-.453.328-.687.482-.221.147-.441.3-.662.462-.03.028-.058.057-.087.085-.088.095-.184.191-.28.283-.09.085-.184.173-.275.258-.341.327-.72.624-1.117.895-.442.273-.94.458-1.44.572-.285.051-.572.09-.863.094-.358.005-.712-.016-1.065-.053-.182-.017-.362-.05-.543-.093-.116-.027-.233-.05-.347-.08-.207-.07-.412-.147-.616-.24-.217-.084-.425-.188-.632-.298-.132-.077-.259-.167-.381-.262l-.162-.136c-.165-.148-.319-.304-.472-.457-.174-.173-.335-.364-.493-.555l-.165-.208c-.135-.17-.273-.339-.405-.515-.09-.123-.17-.258-.23-.397a4.898 4.898 0 0 1-.089-.255l-.01-.042c-.056-.278-.092-.553-.111-.832.01-.048.013-.098.022-.145.036-.282.088-.564.158-.844.062-.306.126-.611.226-.912.111-.355.272-.698.455-1.044.026-.06.062-.118.094-.178.089-.207.188-.41.307-.61.069-.109.146-.219.226-.329a5.618 5.618 0 0 1 .596-.735c.046-.056.094-.113.14-.168.136-.173.28-.334.438-.49.27-.27.558-.514.847-.743.17-.135.342-.267.516-.39.074-.052.152-.103.228-.155.415-.32.838-.623 1.278-.899.233-.134.47-.258.713-.373.089-.048.178-.1.267-.146.026-.015.053-.027.079-.042.213-.116.426-.216.641-.308.295-.116.597-.232.897-.33.208-.057.418-.108.628-.153.142-.034.287-.057.429-.073.108-.011.216-.028.326-.028.114 0 .228.017.343.028.206.024.408.068.61.14.095.043.185.094.28.145.285.154.571.336.848.462.328.137.662.245.994.356a3.75 3.75 0 0 1 2.47 1.46c.195.263.377.541.53.825.026.048.057.096.079.146.16.438.304.881.434 1.328.08.295.155.59.236.886.039.154.069.31.088.467.014.139.014.275.023.414.008.14.015.278.015.418.001.113.004.226-.006.339-.011.132-.029.265-.057.397-.074.428-.146.86-.274 1.293-.4.702-.213 1.391-.432 2.083-.668.228-.044.454-.094.682-.144.118-.028.237-.063.356-.097.332-.059.663-.15.992-.235a10.103 10.103 0 0 0 3.055-1.335 11.608 11.608 0 0 0 2.38-2.046 10.23 10.23 0 0 0 1.643-1.87c.237-.446.453-.908.644-1.377.165-.37.315-.747.445-1.128.057-.191.114-.381.141-.573.027-.207.043-.417.047-.626a9.262 9.262 0 0 0-.05-1.021 6.148 6.148 0 0 0-.318-1.035c-.211-.583-.447-1.17-.74-1.744-.263-.505-.532-1.016-.82-1.514-.195-.362-.39-.727-.601-1.085a10.875 10.875 0 0 0-1.543-2.046 10.205 10.205 0 0 0-2.14-1.583c-.27-.112-.543-.235-.821-.306-.248-.062-.504-.087-.758-.09-.267-.003-.527.034-.79.071-.16.027-.318.068-.475.106-.253.063-.508.121-.758.19-.176.035-.357.089-.534.133-.236.06-.469.133-.703.191-.123.028-.244.075-.366.118-.375.074-.749.153-1.124.22-.225.043-.453.08-.677.097-.221.017-.436-.005-.647-.062-.383-.1-.774-.152-1.165-.166a5.903 5.903 0 0 0-1.068.052c-.133.019-.268.047-.402.078-.254.067-.515.117-.777.139-.12.009-.237.03-.357.057a5.751 5.751 0 0 0-.367.066z"/>
</svg>
